<mxfile host="app.diagrams.net" modified="2024-04-05T01:39:20.309Z" agent="Mozilla/5.0 (Windows NT 10.0; Win64; x64) AppleWebKit/537.36 (KHTML, like Gecko) Chrome/123.0.0.0 Safari/537.36" etag="1C-R4jxX2PJSszSwbSmI" version="24.2.2" type="github">
  <diagram name="Page-1" id="rJivLmG_u7byOfLQ715w">
    <mxGraphModel dx="1257" dy="674" grid="1" gridSize="10" guides="1" tooltips="1" connect="1" arrows="1" fold="1" page="1" pageScale="1" pageWidth="827" pageHeight="1169" math="0" shadow="0">
      <root>
        <mxCell id="0" />
        <mxCell id="1" parent="0" />
      </root>
    </mxGraphModel>
  </diagram>
</mxfile>
